# xmcd
#
# Track frame offsets:
#	150
#	18836
#	34381
#	50350
#	66663
#	79671
#	99254
#	114473
#	130138
#	147143
#	162793
#	179390
#
# Disc length: 2657 seconds
#
# Revision: 0
# Processed by: cddbd v1.5.2PL0 Copyright (c) Steve Scherf et al.
# Submitted via: EasyCDDAExtractor 2010.6.0.0
#
DISCID=9b0a5f0c
DTITLE=Sassi (Nina and Nita) - Gee My 'n Drukkie
DYEAR=1900
DGENRE=pop
TTITLE0=Gee My 'n Drukkie (Mississippi)
TTITLE1=Girls Just Wanna Have Fun
TTITLE2=Ey-Oh-Ey_ho
TTITLE3=The Tide Is High
TTITLE4=Heeltyd Speeltyd
TTITLE5=Kiss You All Over
TTITLE6=Ek Mis Jou
TTITLE7=Haai-Hou
TTITLE8=Jy's My Held
TTITLE9=olê-Josê
TTITLE10=Come What May
TTITLE11=Sekelmaan
EXTD=
EXTT0=
EXTT1=
EXTT2=
EXTT3=
EXTT4=
EXTT5=
EXTT6=
EXTT7=
EXTT8=
EXTT9=
EXTT10=
EXTT11=
PLAYORDER=
